<?xml version="1.0" encoding="utf-8"?>
<!-- Generator: Adobe Illustrator 23.0.3, SVG Export Plug-In . SVG Version: 6.00 Build 0)  -->
<svg version="1.1" id="Layer_1" xmlns="http://www.w3.org/2000/svg" xmlns:xlink="http://www.w3.org/1999/xlink" x="0px" y="0px"
	 viewBox="0 0 264.6 52.5" style="enable-background:new 0 0 264.6 52.5;" xml:space="preserve">
<style type="text/css">
	.st0{fill:#FFFFFF;}
</style>
<g>
	<g id="Cap-logo-white-special_x5F_use_x5F_small_x5F_sizes-RGB.eps_1_">
		<g>
			<g>
				<polygon class="st0" points="3.2,39.6 8.7,41.5 8,39.6 				"/>
				<polygon class="st0" points="12.1,39.6 8.6,39.6 12.1,48.2 				"/>
				<polygon class="st0" points="12.1,35.6 3.1,38.9 12.1,38.9 				"/>
				<polygon class="st0" points="17.2,33.7 12.7,35.4 12.7,48 				"/>
			</g>
		</g>
	</g>
	<g>
		<path class="st0" d="M253,36.5c0-0.5,0.4-1,1-1h7c0.5,0,1,0.4,1,1v3.5c0,0.5-0.4,1-1,1h-0.7c-0.5,0-1.3,0.2-1.8,0.5l-2.6,1.4
			c-0.5,0.3-0.7,0.1-0.4-0.4l0.3-0.6c0.2-0.5,0-0.9-0.6-0.9H254c-0.5,0-1-0.4-1-1V36.5z"/>
		<path class="st0" d="M166,41.1c-0.8-0.3-1.6-0.5-1.6-1.2c0-0.5,0.4-0.9,0.9-0.9h0.2c0.5,0,0.8,0.2,1,0.7c0,0.1,0.1,0.2,0.2,0.1
			l1.4-0.7c0.1,0,0.1-0.2,0-0.3c-0.1-0.2-0.3-0.4-0.4-0.6c-0.5-0.6-1.2-1-2.3-1h-0.2c-1.8,0-2.9,1.1-2.9,2.7c0,1.7,1.1,2.3,2.4,2.8
			c0.9,0.3,1.6,0.5,1.6,1.3c0,0.6-0.5,0.8-1,0.8h-0.4c-0.5,0-0.8-0.2-1-0.7c0-0.1-0.1-0.2-0.2-0.1l-1.4,0.7c-0.1,0-0.1,0.2,0,0.3
			c0.1,0.2,0.3,0.5,0.5,0.7c0.5,0.5,1.2,0.9,2.2,0.9h0.5c1.8,0,2.9-1.1,2.9-2.7C168.3,42.3,167.3,41.6,166,41.1"/>
		<path class="st0" d="M172.8,44.1c0,0.5-0.4,0.8-0.9,0.8s-0.9-0.4-0.9-0.8v-1.9c0-0.4,0.4-0.8,0.9-0.8s0.9,0.4,0.9,0.8V44.1z
			 M171.9,39.6c-1.8,0-2.9,1.1-2.9,2.6V44c0,1.6,1.2,2.6,2.9,2.6c1.7,0,2.9-1.1,2.9-2.6v-1.8C174.8,40.7,173.6,39.6,171.9,39.6"/>
		<path class="st0" d="M180.2,37.5c-0.2-0.1-0.6-0.1-1-0.1c-2.1,0-2.9,1.5-2.9,2.6v0.4c0,0.1,0,0.1-0.2,0.1h-0.3
			c-0.1,0-0.1,0-0.1,0.1v1.6c0,0.1,0.1,0.1,0.1,0.1h0.3c0.1,0,0.2,0,0.2,0.1v4c0,0.1,0,0.1,0.1,0.1h1.7c0.1,0,0.1,0,0.1-0.1v-4
			c0-0.1,0-0.1,0.2-0.1h0.9c0.1,0,0.1,0,0.1-0.1v-1.5c0-0.1,0-0.1-0.1-0.1h-0.9c-0.1,0-0.2,0-0.2-0.1V40c0-0.5,0.4-0.8,0.9-0.8
			c0.2,0,0.4,0,0.5,0.1c0.1,0,0.2,0,0.2-0.1l0.4-1.5C180.3,37.6,180.3,37.5,180.2,37.5"/>
		<path class="st0" d="M184.4,39.8h-1c-0.1,0-0.2,0-0.2-0.1v-0.9c0-0.1,0-0.1-0.1-0.1h-0.9c-0.1,0-0.1,0-0.2,0.1l-1.8,1.8v1
			c0,0.1,0,0.1,0.1,0.1h0.7c0.1,0,0.2,0.1,0.2,0.2v2.2c0,1.7,1.1,2.6,2.4,2.6h0.6c0.1,0,0.2-0.1,0.2-0.2V45c0-0.1,0-0.1-0.1-0.1
			h-0.2c-0.6,0-0.9-0.4-0.9-1v-2.1c0-0.1,0-0.2,0.2-0.2h1c0.1,0,0.1,0,0.1-0.1V40C184.5,39.8,184.5,39.8,184.4,39.8"/>
		<path class="st0" d="M194.1,39.8h-1.7c-0.1,0-0.1,0-0.2,0.1l-0.6,2.7c-0.1,0.3-0.1,0.7-0.1,1l0,0c0-0.3-0.1-0.7-0.2-1l-0.6-2.7
			c0-0.1-0.1-0.1-0.2-0.1h-1.4c-0.1,0-0.1,0-0.1,0.1l-0.6,2.7c-0.1,0.3-0.1,0.7-0.2,1l0,0c0-0.3-0.1-0.7-0.1-1l-0.7-2.7
			c0-0.1-0.1-0.1-0.1-0.1h-1.8c-0.1,0-0.2,0.1-0.1,0.2l2,6.3c0,0.1,0.1,0.1,0.1,0.1h1.3c0.1,0,0.1,0,0.1-0.1l0.8-3
			c0.1-0.3,0.2-0.9,0.2-0.9l0,0c0,0,0.1,0.6,0.2,0.9l0.8,3c0,0.1,0.1,0.1,0.1,0.1h1.3c0.1,0,0.1,0,0.1-0.1l2.1-6.3
			C194.3,39.9,194.2,39.8,194.1,39.8"/>
		<path class="st0" d="M197.5,44.9H197c-0.3,0-0.5-0.2-0.5-0.6c0-0.3,0.2-0.5,0.5-0.5h1.2c0.1,0,0.1,0.2,0.1,0.2
			C198.3,44.6,197.8,44.9,197.5,44.9 M197.4,39.6c-0.9,0-1.6,0.3-2,0.7c-0.3,0.2-0.5,0.5-0.7,0.9c-0.1,0.1,0,0.3,0,0.3l1.4,0.7
			c0.1,0,0.2,0,0.2-0.1c0.2-0.5,0.5-0.7,1-0.7s0.9,0.4,0.9,0.8v0.1c0,0.1,0,0.2-0.1,0.2h-1.3c-1.3,0-2.3,0.7-2.3,1.9v0.1
			c0,1.2,0.9,2,2.2,2h0.5c0.4,0,0.8-0.1,1.1-0.4c0.1,0,0.1,0,0.1,0v0.2c0,0.1,0.1,0.1,0.2,0.1h1.4c0.1,0,0.1,0,0.1-0.1v-4.1
			C200.3,40.7,199.2,39.6,197.4,39.6"/>
		<path class="st0" d="M205.1,39.8c-0.1,0-0.2,0-0.4,0c-0.5,0-1.1,0.3-1.3,0.5c-0.1,0.1-0.2,0.1-0.2-0.1v-0.3c0-0.1,0-0.1-0.1-0.1
			h-1.4c-0.1,0-0.1,0-0.1,0.1v6.3c0,0.1,0.1,0.1,0.1,0.1h1.7c0.1,0,0.1,0,0.1-0.1v-3.8c0-0.5,0.4-0.9,0.9-0.9c0.2,0,0.4,0,0.6,0.1
			c0.1,0,0.2,0,0.2-0.1V40C205.2,39.9,205.2,39.8,205.1,39.8"/>
		<path class="st0" d="M209.6,42.3H208c-0.1,0-0.2-0.1-0.2-0.2v-0.2c0-0.4,0.4-0.7,0.9-0.7s0.9,0.3,0.9,0.7v0.2
			C209.8,42.2,209.7,42.3,209.6,42.3 M208.8,39.6c-1.7,0-2.9,1.2-2.9,2.6v1.9c0,1.6,1.2,2.6,2.9,2.6c1,0,1.6-0.3,2.1-0.8
			c0.2-0.2,0.4-0.5,0.6-0.8c0.1-0.1,0-0.3,0-0.3l-1.4-0.7c-0.1,0-0.2,0-0.2,0.1c-0.2,0.5-0.5,0.7-1,0.7s-0.9-0.4-0.9-0.8v-0.3
			c0-0.1,0-0.2,0.2-0.2h3.5c0.1,0,0.1,0,0.1-0.1v-1.3C211.6,40.8,210.4,39.6,208.8,39.6"/>
		<path class="st0" d="M218.8,43.4h-0.9c-0.1,0-0.2-0.1-0.2-0.2L218,42c0.1-0.5,0.3-1.2,0.3-1.5h0.1c0,0.4,0.1,1,0.3,1.5l0.3,1.2
			C219,43.3,219,43.4,218.8,43.4 M219.1,37.6C219.1,37.5,219,37.5,219.1,37.6l-1.4-0.1c-0.1,0-0.1,0-0.1,0.1l-2.8,8.7
			c0,0.1,0,0.2,0.1,0.2h1.8c0.1,0,0.1,0,0.1-0.1l0.4-1.3c0-0.1,0.1-0.1,0.2-0.1h1.9c0.1,0,0.1,0,0.2,0.1l0.4,1.3
			c0,0.1,0.1,0.1,0.1,0.1h1.8c0.1,0,0.2-0.1,0.1-0.2L219.1,37.6z"/>
		<path class="st0" d="M226.2,44c0,0.5-0.4,0.8-0.9,0.8s-0.9-0.4-0.9-0.8v-1.7c0-0.5,0.4-0.8,0.9-0.8s0.9,0.3,0.9,0.8V44z
			 M228.1,37.5h-1.7c-0.1,0-0.1,0-0.1,0.1v2c0,0.2,0,0.6,0,0.6c-0.3-0.3-0.8-0.4-1.1-0.4c-1.6,0-2.7,1.1-2.7,2.6v1.5
			c0,1.7,1,2.6,2.7,2.6c0.4,0,0.9-0.1,1.2-0.4c0.1-0.1,0.2,0,0.2,0.1v0.2c0,0.1,0,0.1,0.1,0.1h1.4c0.1,0,0.1,0,0.1-0.1L228.1,37.5
			C228.2,37.6,228.2,37.5,228.1,37.5"/>
		<path class="st0" d="M235.6,39.8h-1.8c-0.1,0-0.1,0-0.2,0.1l-1.1,3.1c-0.1,0.2-0.1,0.5-0.2,0.7l0,0c0-0.2-0.1-0.5-0.2-0.7
			l-1.1-3.1c0-0.1-0.1-0.1-0.1-0.1h-1.8c-0.1,0-0.2,0.1-0.1,0.2l2.6,6.3c0,0.1,0.1,0.1,0.1,0.1h1.3c0.1,0,0.1,0,0.2-0.1l2.6-6.3
			C235.8,39.9,235.7,39.8,235.6,39.8"/>
		<path class="st0" d="M238.3,39.8h-1.7c-0.1,0-0.1,0-0.1,0.1v6.3c0,0.1,0,0.1,0.1,0.1h1.7c0.1,0,0.1,0,0.1-0.1L238.3,39.8
			C238.5,39.8,238.4,39.8,238.3,39.8"/>
		<path class="st0" d="M242.5,41.4c0.4,0,0.8,0.3,1,0.9c0,0.1,0.1,0.1,0.2,0.1l1.4-0.6c0.1,0,0.1-0.1,0.1-0.2
			c-0.1-0.3-0.3-0.6-0.5-0.8c-0.5-0.6-1.2-1-2.3-1c-1.8,0-2.9,1.1-2.9,2.6v1.8c0,1.6,1.1,2.6,2.9,2.6c1,0,1.7-0.3,2.1-0.8
			c0.2-0.3,0.4-0.6,0.6-1c0-0.1,0-0.2-0.1-0.2l-1.4-0.6c-0.1,0-0.2,0-0.2,0.1c-0.2,0.6-0.6,0.9-1,0.9c-0.5,0-0.9-0.4-0.9-0.8v-1.9
			C241.6,41.7,242,41.4,242.5,41.4"/>
		<path class="st0" d="M249.4,42.3h-1.6c-0.1,0-0.2-0.1-0.2-0.2v-0.2c0-0.4,0.4-0.7,0.9-0.7s0.9,0.3,0.9,0.7v0.2
			C249.6,42.2,249.6,42.3,249.4,42.3 M248.6,39.6c-1.7,0-2.9,1.2-2.9,2.6v1.9c0,1.6,1.2,2.6,2.9,2.6c0.9,0,1.6-0.3,2.1-0.8
			c0.2-0.2,0.4-0.5,0.6-0.8c0.1-0.1,0-0.3,0-0.3l-1.4-0.7c-0.1,0-0.2,0-0.2,0.1c-0.2,0.5-0.5,0.7-1,0.7s-0.9-0.4-0.9-0.8v-0.3
			c0-0.1,0-0.2,0.2-0.2h3.5c0.1,0,0.1,0,0.1-0.1v-1.3C251.5,40.8,250.3,39.6,248.6,39.6"/>
		<path class="st0" d="M237.5,37.1c-0.6,0-1,0.5-1,1c0,0.5,0.5,1,1,1c0.6,0,1-0.5,1-1C238.5,37.6,238,37.1,237.5,37.1"/>
	</g>
	<g>
		<path class="st0" d="M25.6,45.5c-0.1,0.1-0.2,0.1-0.3,0.2c-0.1,0.1-0.3,0.2-0.5,0.3c-0.2,0.1-0.5,0.2-0.8,0.2
			c-0.3,0.1-0.7,0.1-1.1,0.1c-0.8,0-1.4-0.1-2-0.4c-0.6-0.2-1-0.6-1.4-1c-0.4-0.4-0.6-1-0.8-1.6c-0.2-0.6-0.3-1.3-0.3-2
			s0.1-1.4,0.3-2c0.2-0.6,0.5-1.1,0.8-1.6s0.8-0.8,1.4-1c0.5-0.2,1.2-0.4,1.9-0.4c0.4,0,0.7,0,1,0.1c0.3,0.1,0.6,0.1,0.8,0.2
			s0.4,0.2,0.5,0.3c0.1,0.1,0.3,0.2,0.3,0.2c0.1,0.1,0.2,0.2,0.2,0.3c0.1,0.1,0.1,0.2,0.1,0.3c0,0.2-0.1,0.4-0.2,0.6
			c-0.1,0.2-0.3,0.4-0.5,0.5c-0.1-0.1-0.2-0.2-0.4-0.3c-0.1-0.1-0.3-0.2-0.5-0.3c-0.2-0.1-0.4-0.2-0.6-0.2C23.3,38,23,38,22.8,38
			c-0.5,0-0.9,0.1-1.2,0.3c-0.3,0.2-0.6,0.4-0.8,0.8c-0.2,0.3-0.3,0.7-0.4,1.1c-0.1,0.4-0.1,0.8-0.1,1.2c0,0.4,0,0.9,0.1,1.3
			s0.2,0.8,0.4,1.1c0.2,0.3,0.5,0.6,0.8,0.7c0.3,0.2,0.8,0.3,1.2,0.3c0.3,0,0.5,0,0.7-0.1c0.2-0.1,0.4-0.1,0.6-0.2
			c0.2-0.1,0.3-0.2,0.4-0.3c0.1-0.1,0.2-0.2,0.3-0.3c0.1,0.1,0.1,0.1,0.2,0.2c0.1,0.1,0.1,0.2,0.2,0.3c0.1,0.1,0.1,0.2,0.2,0.3
			c0,0.1,0.1,0.2,0.1,0.3c0,0.1,0,0.2-0.1,0.3C25.8,45.3,25.7,45.4,25.6,45.5"/>
		<path class="st0" d="M31,42.7h-0.2c-0.1,0-0.1,0-0.2,0c-0.2,0-0.5,0-0.7,0.1c-0.2,0-0.4,0.1-0.6,0.2s-0.3,0.2-0.4,0.4
			c-0.1,0.2-0.2,0.3-0.2,0.6c0,0.3,0.1,0.5,0.2,0.7c0.2,0.2,0.4,0.3,0.8,0.3c0.2,0,0.3,0,0.5-0.1c0.2,0,0.3-0.1,0.4-0.2
			c0.1-0.1,0.2-0.2,0.3-0.2c0.1-0.1,0.1-0.2,0.1-0.2S31,42.7,31,42.7z M32.8,44.4c0,0.7,0.1,1.3,0.3,1.6c-0.2,0.1-0.3,0.1-0.5,0.2
			c-0.2,0.1-0.3,0-0.5,0c-0.3,0-0.6-0.1-0.8-0.2c-0.2-0.1-0.3-0.3-0.3-0.6c-0.2,0.2-0.5,0.4-0.8,0.6s-0.8,0.2-1.2,0.2
			c-0.3,0-0.5,0-0.8-0.1c-0.3-0.1-0.5-0.2-0.7-0.3c-0.2-0.2-0.4-0.4-0.5-0.6c-0.1-0.3-0.2-0.6-0.2-1c0-0.5,0.1-0.9,0.3-1.2
			c0.2-0.3,0.5-0.5,0.9-0.7c0.3-0.2,0.7-0.3,1.1-0.4c0.4-0.1,0.8-0.1,1.1-0.1c0.1,0,0.2,0,0.3,0h0.3v-0.3c0-0.4-0.1-0.6-0.3-0.8
			c-0.2-0.2-0.5-0.2-0.9-0.2c-0.4,0-0.8,0.1-1.1,0.2c-0.3,0.1-0.6,0.3-0.9,0.5c-0.1-0.2-0.2-0.3-0.3-0.5c-0.1-0.2-0.1-0.3-0.1-0.4
			c0-0.1,0.1-0.3,0.2-0.4c0.1-0.1,0.3-0.2,0.6-0.3c0.3-0.1,0.5-0.2,0.9-0.2c0.3-0.1,0.7-0.1,1-0.1c0.5,0,0.9,0.1,1.3,0.2
			c0.4,0.1,0.6,0.3,0.9,0.5c0.2,0.2,0.4,0.5,0.5,0.8c0.1,0.3,0.1,0.7,0.1,1.1L32.8,44.4L32.8,44.4z"/>
		<path class="st0" d="M38.9,42.6c0-0.3,0-0.5-0.1-0.8c0-0.2-0.1-0.5-0.2-0.6c-0.1-0.2-0.3-0.3-0.4-0.4c-0.2-0.1-0.4-0.1-0.7-0.1
			c-0.4,0-0.7,0.1-0.8,0.2c-0.2,0.2-0.2,0.3-0.2,0.5v3c0.1,0.1,0.2,0.2,0.4,0.3c0.2,0.1,0.4,0.2,0.7,0.2c0.5,0,0.8-0.2,1.1-0.6
			C38.8,43.8,38.9,43.2,38.9,42.6 M36.3,39.9c0.2-0.2,0.4-0.4,0.7-0.5c0.3-0.2,0.7-0.3,1.2-0.3c0.3,0,0.7,0.1,1,0.2
			c0.3,0.1,0.6,0.3,0.8,0.6c0.2,0.3,0.4,0.6,0.6,1.1c0.1,0.4,0.2,1,0.2,1.6c0,0.7-0.1,1.3-0.3,1.8c-0.2,0.5-0.4,0.9-0.7,1.1
			c-0.3,0.3-0.6,0.5-0.9,0.6c-0.3,0.1-0.7,0.2-1,0.2c-0.3,0-0.5,0-0.7-0.1c-0.2-0.1-0.4-0.1-0.5-0.2c-0.1-0.1-0.2-0.2-0.3-0.2
			c-0.1-0.1-0.1-0.1-0.1-0.2v3.5h-1.9v-9.6c0,0,0.1,0,0.2,0s0.1,0,0.2,0s0.2,0,0.3,0c0.3,0,0.6,0.1,0.8,0.2
			C36.1,39.5,36.3,39.7,36.3,39.9"/>
		<path class="st0" d="M42.3,45c-0.1-0.2-0.1-0.4-0.1-0.6s0-0.4,0-0.6v-6.5c0.1,0,0.1,0,0.2,0c0.1,0,0.1,0,0.2,0c0.1,0,0.2,0,0.2,0
			c0.2,0,0.3,0,0.5,0s0.3,0.1,0.4,0.2c0.1,0.1,0.2,0.2,0.3,0.3c0.1,0.1,0.1,0.3,0.1,0.6v1h2v1.4h-2v3c0,0.7,0.3,1,0.8,1
			c0.1,0,0.3,0,0.4-0.1c0.1,0,0.2-0.1,0.3-0.1c0.1-0.1,0.2-0.1,0.2-0.2c0.1-0.1,0.1-0.1,0.1-0.1c0.1,0.2,0.2,0.4,0.3,0.5
			c0.1,0.2,0.1,0.3,0.1,0.4c0,0.1-0.1,0.2-0.1,0.4c-0.1,0.1-0.2,0.2-0.4,0.3c-0.2,0.1-0.4,0.3-0.6,0.3c-0.3,0.1-0.5,0.1-0.8,0.1
			c-0.6,0-1-0.1-1.4-0.3C42.6,45.7,42.4,45.4,42.3,45"/>
		<path class="st0" d="M51.6,41.9c0-0.5-0.1-0.8-0.3-1.1c-0.2-0.3-0.5-0.4-0.9-0.4s-0.7,0.1-0.9,0.4c-0.2,0.3-0.3,0.6-0.3,1.1H51.6z
			 M50.9,44.8c0.2,0,0.4,0,0.6-0.1c0.2-0.1,0.3-0.1,0.5-0.2c0.1-0.1,0.3-0.2,0.4-0.2c0.1-0.1,0.2-0.2,0.3-0.2
			c0.1,0.1,0.2,0.3,0.4,0.5c0.1,0.2,0.2,0.4,0.2,0.5c0,0.2-0.1,0.4-0.4,0.6c-0.2,0.2-0.5,0.3-0.8,0.4c-0.4,0.1-0.8,0.2-1.3,0.2
			c-0.4,0-0.9-0.1-1.3-0.2c-0.4-0.1-0.8-0.3-1.2-0.6c-0.3-0.3-0.6-0.7-0.8-1.1c-0.2-0.5-0.3-1.1-0.3-1.8c0-0.6,0.1-1.1,0.3-1.5
			c0.2-0.4,0.4-0.8,0.7-1.1c0.3-0.3,0.7-0.5,1-0.6c0.4-0.1,0.8-0.2,1.2-0.2c0.5,0,1,0.1,1.3,0.2c0.4,0.2,0.7,0.4,0.9,0.7
			c0.2,0.3,0.4,0.6,0.5,1c0.1,0.4,0.2,0.7,0.2,1.1v0.2c0,0.1,0,0.2,0,0.2c0,0.1,0,0.2,0,0.2c0,0.1,0,0.1,0,0.2h-4.2
			c0,0.5,0.2,1,0.5,1.3C49.9,44.6,50.3,44.8,50.9,44.8"/>
		<path class="st0" d="M56.6,40c0.1-0.1,0.1-0.2,0.2-0.3c0.1-0.1,0.2-0.2,0.3-0.3c0.1-0.1,0.3-0.2,0.5-0.2c0.2-0.1,0.3-0.1,0.5-0.1
			c0.1,0,0.2,0,0.4,0c0.1,0,0.2,0.1,0.4,0.1c0.1,0.1,0.2,0.1,0.3,0.2c0.1,0.1,0.1,0.2,0.1,0.3c0,0.2-0.1,0.4-0.2,0.7
			c-0.1,0.3-0.2,0.5-0.3,0.7c-0.2-0.1-0.3-0.2-0.5-0.3c-0.2-0.1-0.3-0.1-0.6-0.1c-0.3,0-0.5,0.1-0.7,0.3c-0.2,0.2-0.3,0.4-0.3,0.6
			v4.6h-1.9v-6.8c0,0,0.1,0,0.2,0c0.1,0,0.1,0,0.2,0c0.1,0,0.2,0,0.3,0c0.3,0,0.6,0.1,0.8,0.2C56.4,39.6,56.5,39.7,56.6,40"/>
		<path class="st0" d="M62.1,40c0.1-0.1,0.1-0.2,0.2-0.3c0.1-0.1,0.2-0.2,0.3-0.3c0.1-0.1,0.3-0.2,0.5-0.2c0.2-0.1,0.3-0.1,0.5-0.1
			c0.1,0,0.2,0,0.4,0c0.1,0,0.2,0.1,0.4,0.1c0.1,0.1,0.2,0.1,0.3,0.2c0.1,0.1,0.1,0.2,0.1,0.3c0,0.2-0.1,0.4-0.2,0.7
			c-0.1,0.3-0.2,0.5-0.3,0.7c-0.2-0.1-0.3-0.2-0.5-0.3c-0.2-0.1-0.4-0.1-0.6-0.1c-0.3,0-0.5,0.1-0.7,0.3c-0.2,0.2-0.3,0.4-0.3,0.6
			v4.6h-1.9v-6.8c0,0,0.1,0,0.2,0c0.1,0,0.1,0,0.2,0s0.2,0,0.3,0c0.3,0,0.6,0.1,0.8,0.2C61.9,39.6,62,39.7,62.1,40"/>
		<path class="st0" d="M69.4,42.7h-0.2c-0.1,0-0.1,0-0.2,0c-0.2,0-0.5,0-0.7,0.1c-0.2,0-0.4,0.1-0.6,0.2c-0.2,0.1-0.3,0.2-0.4,0.4
			c-0.1,0.2-0.2,0.3-0.2,0.6c0,0.3,0.1,0.5,0.2,0.7c0.2,0.2,0.4,0.3,0.8,0.3c0.2,0,0.3,0,0.5-0.1c0.2,0,0.3-0.1,0.4-0.2
			c0.1-0.1,0.2-0.2,0.3-0.2c0.1-0.1,0.1-0.2,0.1-0.2L69.4,42.7L69.4,42.7z M71.2,44.4c0,0.7,0.1,1.3,0.3,1.6
			c-0.2,0.1-0.3,0.1-0.5,0.1c-0.1,0-0.3,0-0.5,0c-0.3,0-0.6-0.1-0.8-0.2c-0.2-0.1-0.3-0.3-0.3-0.6c-0.2,0.2-0.5,0.4-0.8,0.6
			c-0.3,0.2-0.8,0.2-1.2,0.2c-0.3,0-0.5,0-0.8-0.1c-0.3-0.1-0.5-0.2-0.7-0.3c-0.2-0.2-0.4-0.4-0.5-0.6c-0.1-0.3-0.2-0.6-0.2-1
			c0-0.5,0.1-0.9,0.3-1.2c0.2-0.3,0.5-0.5,0.9-0.7c0.3-0.2,0.7-0.3,1.1-0.4c0.4-0.1,0.8-0.1,1.1-0.1c0.1,0,0.2,0,0.3,0h0.3v-0.3
			c0-0.4-0.1-0.6-0.3-0.8c-0.2-0.2-0.5-0.2-0.9-0.2s-0.8,0.1-1.1,0.2c-0.3,0.1-0.6,0.3-0.9,0.5c-0.1-0.2-0.2-0.3-0.3-0.5
			c-0.1-0.2-0.1-0.3-0.1-0.4c0-0.1,0.1-0.3,0.2-0.4c0.1-0.1,0.3-0.2,0.6-0.3c0.3-0.1,0.5-0.2,0.9-0.2c0.3-0.1,0.7-0.1,1-0.1
			c0.5,0,0.9,0.1,1.3,0.2c0.4,0.1,0.6,0.3,0.9,0.5c0.2,0.2,0.4,0.5,0.5,0.8c0.1,0.3,0.1,0.7,0.1,1.1L71.2,44.4L71.2,44.4z"/>
		<path class="st0" d="M100.8,41.7l-4.3-4.3c-0.1-0.1-0.4-0.1-0.5,0l-0.8,0.8l3.5,3.5c0.1,0.1,0.1,0.4,0,0.5l-3.6,3.6l0.8,0.8
			c0.1,0.1,0.4,0.1,0.5,0l4.4-4.4C100.9,42,100.9,41.8,100.8,41.7"/>
		<path class="st0" d="M93.5,37.8l-0.3-0.3c-0.1-0.1-0.4-0.1-0.5,0l-0.8,0.8l0.6,0.6l1.1,1.1l1.1-1.1L93.5,37.8z"/>
		<path class="st0" d="M93.4,44.1l-1.1,1.1l-0.6,0.6l0.8,0.8c0.1,0.1,0.4,0.1,0.5,0l0.3-0.3l1.1-1.1L93.4,44.1z"/>
		<path class="st0" d="M95.3,41.7c0.1,0.1,0.1,0.4,0,0.5l-1.9,1.9l1.1,1.1l3-3c0.1-0.1,0.1-0.4,0-0.5l-2.9-2.9l-1.1,1.1L95.3,41.7z"
			/>
		<path class="st0" d="M88.3,41.8l3-3l-1.1-1.1l-0.3-0.3c-0.1-0.1-0.4-0.1-0.5,0l-4.4,4.4c-0.1,0.1-0.1,0.4,0,0.5l4.3,4.3
			c0.1,0.1,0.4,0.1,0.5,0l0.3-0.3l1.1-1.1l-2.9-2.9C88.1,42.2,88.1,41.9,88.3,41.8"/>
		<path class="st0" d="M91.6,41.8l1.3-1.3l-1.1-1.1l-0.6-0.6l-3,3c-0.1,0.1-0.1,0.4,0,0.5l2.9,2.9l0.6-0.6l1.1-1.1l-1.2-1.2
			C91.5,42.2,91.5,41.9,91.6,41.8"/>
		<path class="st0" d="M91.6,42.3l1.2,1.2l1.3-1.3c0.1-0.1,0.1-0.4,0-0.5l-1.2-1.2l-1.3,1.3C91.5,41.9,91.5,42.2,91.6,42.3"/>
		<path class="st0" d="M104.2,40.8c0-0.5,0.1-1,0.3-1.4c0.2-0.4,0.4-0.8,0.8-1.1c0.3-0.3,0.7-0.6,1.2-0.7c0.5-0.2,1.1-0.3,1.7-0.3
			c0.8,0,1.4,0.1,1.9,0.3c0.5,0.2,0.9,0.4,1.2,0.7c0.3,0.3,0.5,0.6,0.6,0.9c0.1,0.3,0.2,0.5,0.2,0.7c0,0.1,0,0.2-0.1,0.3
			c-0.1,0.1-0.2,0.1-0.3,0.1h-1.1c-0.1,0-0.2,0-0.2-0.1c-0.1,0-0.1-0.1-0.1-0.2c0,0-0.1-0.1-0.1-0.2c-0.1-0.1-0.2-0.2-0.4-0.4
			c-0.2-0.2-0.4-0.2-0.6-0.3c-0.3-0.1-0.6-0.2-1-0.2c-0.7,0-1.2,0.2-1.6,0.5c-0.4,0.4-0.6,0.8-0.6,1.4c0,0.3,0,0.7,0,1.1
			s0,0.7,0,1.1c0,0.7,0.2,1.3,0.6,1.6c0.4,0.3,0.9,0.5,1.6,0.5c0.3,0,0.6,0,0.9-0.1c0.3-0.1,0.5-0.2,0.7-0.3
			c0.2-0.2,0.4-0.4,0.5-0.6c0.1-0.3,0.2-0.6,0.2-1V43h-1.6c-0.1,0-0.2,0-0.2-0.1c-0.1-0.1-0.1-0.2-0.1-0.2v-0.9c0-0.1,0-0.2,0.1-0.2
			c0.1-0.1,0.2-0.1,0.2-0.1h3c0.1,0,0.2,0,0.2,0.1c0.1,0.1,0.1,0.2,0.1,0.2v1.3c0,0.5-0.1,1-0.2,1.5c-0.2,0.4-0.4,0.8-0.7,1.1
			c-0.3,0.3-0.7,0.6-1.2,0.7c-0.5,0.2-1.1,0.3-1.7,0.3c-0.7,0-1.2-0.1-1.7-0.3c-0.5-0.2-0.9-0.4-1.2-0.7c-0.3-0.3-0.6-0.7-0.7-1.1
			c-0.2-0.4-0.3-0.9-0.3-1.5c0-0.2,0-0.3,0-0.6c0-0.2,0-0.4,0-0.6s0-0.4,0-0.6C104.1,41.1,104.1,41,104.2,40.8"/>
		<path class="st0" d="M116,41.2c-0.3,0-0.5,0-0.6,0.1c-0.2,0.1-0.3,0.2-0.5,0.3c-0.1,0.1-0.2,0.2-0.3,0.4c-0.1,0.1-0.1,0.3-0.1,0.4
			h3c0-0.1-0.1-0.3-0.1-0.4c0-0.1-0.1-0.3-0.2-0.4c-0.1-0.1-0.3-0.2-0.4-0.3C116.6,41.2,116.3,41.2,116,41.2 M112.8,43.2
			c0-0.5,0.1-1,0.2-1.4c0.1-0.4,0.4-0.8,0.6-1.1c0.3-0.3,0.6-0.6,1-0.8c0.4-0.2,0.8-0.3,1.3-0.3s0.9,0.1,1.3,0.3
			c0.4,0.2,0.7,0.4,1,0.7s0.5,0.7,0.6,1.1c0.2,0.4,0.2,0.8,0.2,1.3v0.6c0,0.1,0,0.2-0.1,0.2c-0.1,0.1-0.2,0.1-0.2,0.1h-4.4
			c0,0.2,0,0.4,0.1,0.5c0.1,0.2,0.2,0.3,0.3,0.4c0.1,0.1,0.3,0.2,0.5,0.2c0.2,0.1,0.4,0.1,0.6,0.1c0.3,0,0.5,0,0.7-0.1
			c0.2-0.1,0.3-0.1,0.4-0.2c0.1-0.1,0.2-0.1,0.2-0.1c0.1,0,0.1,0,0.2,0h1.1c0.1,0,0.2,0,0.3,0.1c0.1,0.1,0.1,0.2,0.1,0.2
			c0,0.1-0.1,0.3-0.2,0.5s-0.3,0.4-0.6,0.6c-0.3,0.2-0.6,0.3-0.9,0.5c-0.4,0.1-0.8,0.2-1.3,0.2c-0.5,0-0.9-0.1-1.3-0.3
			c-0.4-0.2-0.7-0.4-1-0.7c-0.3-0.3-0.5-0.7-0.6-1.1C112.9,44.2,112.8,43.7,112.8,43.2"/>
		<path class="st0" d="M122.5,44.1c0,0.3,0.1,0.5,0.2,0.7c0.1,0.2,0.4,0.2,0.8,0.2h0.8c0.1,0,0.2,0,0.2,0.1c0.1,0.1,0.1,0.2,0.1,0.2
			v0.9c0,0.1,0,0.2-0.1,0.2c-0.1,0.1-0.2,0.1-0.2,0.1h-1c-0.8,0-1.5-0.2-1.9-0.6s-0.7-1-0.7-1.8v-2.8h-0.9c-0.1,0-0.2,0-0.2-0.1
			c-0.1-0.1-0.1-0.2-0.1-0.2v-0.9c0-0.1,0-0.2,0.1-0.2c0.1-0.1,0.2-0.1,0.2-0.1h0.9v-2.1c0-0.1,0-0.2,0.1-0.2
			c0.1-0.1,0.2-0.1,0.2-0.1h1c0.1,0,0.2,0,0.2,0.1c0.1,0.1,0.1,0.2,0.1,0.2v2.1h1.7c0.1,0,0.2,0,0.2,0.1c0.1,0.1,0.1,0.2,0.1,0.2V41
			c0,0.1,0,0.2-0.1,0.2c-0.1,0.1-0.2,0.1-0.2,0.1h-1.7v2.8H122.5z"/>
		<path class="st0" d="M131.3,43.2l-1.4-3.7l-1.4,3.7H131.3z M130.6,37.5c0.1,0,0.2,0,0.3,0.1c0.1,0.1,0.1,0.2,0.2,0.3l3.2,8.2v0.1
			c0,0.1,0,0.2-0.1,0.2c-0.1,0.1-0.2,0.1-0.2,0.1h-1c-0.2,0-0.3,0-0.4-0.1c-0.1-0.1-0.1-0.1-0.1-0.2l-0.6-1.5h-4.1l-0.6,1.5
			c0,0.1-0.1,0.1-0.1,0.2c-0.1,0.1-0.2,0.1-0.4,0.1h-0.9c-0.1,0-0.2,0-0.2-0.1c-0.1-0.1-0.1-0.2-0.1-0.2v-0.1l3.2-8.2
			c0.1-0.1,0.1-0.3,0.2-0.3c0.1-0.1,0.2-0.1,0.3-0.1H130.6z"/>
		<path class="st0" d="M140,43.5c0-0.2,0-0.5,0-0.7c-0.1-0.6-0.2-1-0.5-1.2s-0.7-0.4-1.1-0.4c-0.4,0-0.8,0.1-1.1,0.4
			c-0.3,0.3-0.5,0.6-0.5,1.1c0,0.1,0,0.3,0,0.5s0,0.4,0,0.5c0,0.5,0.2,0.8,0.5,1.1c0.3,0.3,0.7,0.4,1.1,0.4c0.4,0,0.8-0.1,1.1-0.4
			C139.7,44.5,139.9,44.1,140,43.5 M138.7,46.7c-0.3,0-0.5,0-0.7-0.1c-0.2-0.1-0.4-0.1-0.6-0.2c-0.2-0.1-0.3-0.2-0.4-0.3
			c-0.1-0.1-0.2-0.2-0.3-0.3v2.8c0,0.1,0,0.2-0.1,0.2c-0.1,0.1-0.2,0.1-0.2,0.1h-1c-0.1,0-0.2,0-0.2-0.1c-0.1-0.1-0.1-0.2-0.1-0.2
			v-8.4c0-0.1,0-0.2,0.1-0.2c0.1-0.1,0.2-0.1,0.2-0.1h1c0.1,0,0.2,0,0.2,0.1c0.1,0.1,0.1,0.2,0.1,0.2v0.3c0.1-0.1,0.2-0.2,0.3-0.3
			c0.1-0.1,0.3-0.2,0.4-0.3c0.2-0.1,0.4-0.1,0.6-0.2c0.2-0.1,0.5-0.1,0.7-0.1c0.4,0,0.8,0.1,1.2,0.3c0.4,0.2,0.7,0.4,0.9,0.7
			c0.2,0.3,0.4,0.6,0.6,1c0.1,0.4,0.2,0.8,0.2,1.2c0,0.1,0,0.3,0,0.5s0,0.3,0,0.5c0,0.4-0.1,0.8-0.2,1.2c-0.1,0.4-0.3,0.7-0.6,1
			c-0.2,0.3-0.6,0.5-0.9,0.7C139.6,46.6,139.2,46.7,138.7,46.7"/>
		<path class="st0" d="M147.4,43.5c0-0.2,0-0.5,0-0.7c-0.1-0.6-0.2-1-0.5-1.2s-0.7-0.4-1.1-0.4c-0.4,0-0.8,0.1-1.1,0.4
			c-0.3,0.3-0.5,0.6-0.5,1.1c0,0.1,0,0.3,0,0.5s0,0.4,0,0.5c0,0.5,0.2,0.8,0.5,1.1c0.3,0.3,0.7,0.4,1.1,0.4c0.4,0,0.8-0.1,1.1-0.4
			C147.2,44.5,147.3,44.1,147.4,43.5 M146.2,46.7c-0.3,0-0.5,0-0.7-0.1c-0.2-0.1-0.4-0.1-0.6-0.2c-0.2-0.1-0.3-0.2-0.4-0.3
			c-0.1-0.1-0.2-0.2-0.3-0.3v2.8c0,0.1,0,0.2-0.1,0.2c-0.1,0.1-0.2,0.1-0.2,0.1h-1c-0.1,0-0.2,0-0.2-0.1c-0.1-0.1-0.1-0.2-0.1-0.2
			v-8.4c0-0.1,0-0.2,0.1-0.2c0.1-0.1,0.2-0.1,0.2-0.1h1c0.1,0,0.2,0,0.2,0.1c0.1,0.1,0.1,0.2,0.1,0.2v0.3c0.1-0.1,0.2-0.2,0.3-0.3
			c0.1-0.1,0.3-0.2,0.4-0.3c0.2-0.1,0.4-0.1,0.6-0.2c0.2-0.1,0.5-0.1,0.7-0.1c0.4,0,0.8,0.1,1.2,0.3c0.4,0.2,0.7,0.4,0.9,0.7
			c0.2,0.3,0.4,0.6,0.6,1c0.1,0.4,0.2,0.8,0.2,1.2c0,0.1,0,0.3,0,0.5s0,0.3,0,0.5c0,0.4-0.1,0.8-0.2,1.2c-0.1,0.4-0.3,0.7-0.6,1
			c-0.2,0.3-0.6,0.5-0.9,0.7C147,46.6,146.6,46.7,146.2,46.7"/>
		<path class="st0" d="M253.9,19.9c3.2,0,5-1.3,5-3.9s-1.6-3.3-4.6-3.8c-1.7-0.3-2.3-0.5-2.3-1.3c0-0.7,0.6-1.2,1.7-1.2
			c1.1,0,1.7,0.5,1.9,1.4h3c-0.3-2.7-2.3-3.7-4.9-3.7c-2.4,0-4.7,1.2-4.7,3.7c0,2.3,1.2,3.2,4.4,3.7c1.7,0.3,2.4,0.6,2.4,1.4
			c0,0.8-0.6,1.3-1.9,1.3c-1.4,0-2-0.6-2.1-1.7h-3.1C248.8,18.5,250.7,19.9,253.9,19.9 M245.3,19.9c0.9,0,1.6-0.2,2-0.3V17
			c-0.4,0.2-0.8,0.2-1.3,0.2c-0.8,0-1.3-0.5-1.3-1.4v-5.8h2.5V7.7h-2.5V5.1h-3.3v2.6H240v2.4h1.5v6
			C241.5,18.6,242.8,19.9,245.3,19.9 M235.6,12.5h-5.4c0.3-1.7,1.3-2.7,2.7-2.7C234.6,9.8,235.5,10.7,235.6,12.5 M233.1,19.9
			c3.3,0,5.3-1.4,5.7-4h-3.1c-0.2,1-1,1.7-2.5,1.7c-1.8,0-2.9-1.1-3-3.1h8.5v-0.9c0-4.3-2.7-6-5.8-6c-3.5,0-6.1,2.4-6.1,6.1V14
			C226.9,17.7,229.6,19.9,233.1,19.9 M218.9,2.5h-3.3v17.3h3.3v-5.6l4,5.6h3.8l-4.7-6.4l4.3-5.4h-3.5L219,13L218.9,2.5L218.9,2.5z
			 M209.6,7.8h-3.3v11.9h3.3v-5.9c0-2.3,1.4-3.1,3.9-3.1V7.6c-1.9,0-3.1,0.9-3.9,2.5V7.8z M197.7,17.6c-1.2,0-1.7-0.6-1.7-1.4
			c0-1.3,1.1-1.7,3-1.7h1.3v1C200.3,16.8,199.1,17.6,197.7,17.6 M196.7,19.9c1.9,0,2.9-0.7,3.6-1.7v1.4h3.2v-7.7
			c0-3.2-2.1-4.4-5-4.4s-5.2,1.3-5.4,4.1h3.1c0.1-1,0.7-1.7,2-1.7c1.5,0,1.9,0.8,1.9,2.2v0.5h-1.4c-3.7,0-6.1,1.1-6.1,3.8
			C192.8,18.9,194.6,19.9,196.7,19.9 M178.1,3.4h-4.9v16.2h3.3V8.3l4.6,11.4h1.2l4.5-11.4v11.4h3.7V3.4h-4.8l-3.8,10.1L178.1,3.4z
			 M164.9,2.5h-3.3v17.3h3.3V2.5z M153,17.6c-1.2,0-1.7-0.6-1.7-1.4c0-1.3,1.1-1.7,3-1.7h1.3v1C155.5,16.8,154.4,17.6,153,17.6
			 M152,19.9c1.9,0,2.9-0.7,3.6-1.7v1.4h3.2v-7.7c0-3.2-2.1-4.4-5-4.4s-5.2,1.3-5.4,4.1h3.1c0.1-1,0.7-1.7,2-1.7
			c1.5,0,1.9,0.8,1.9,2.2v0.5h-1.3c-3.7,0-6.1,1.1-6.1,3.8C148,18.9,149.8,19.9,152,19.9 M144.5,19.9c0.9,0,1.6-0.2,2-0.3V17
			c-0.4,0.2-0.8,0.2-1.3,0.2c-0.8,0-1.3-0.5-1.3-1.4v-5.8h2.5V7.7h-2.5V5.1h-3.3v2.6h-1.5v2.4h1.5v6C140.7,18.6,142,19.9,144.5,19.9
			 M137.1,7.8h-3.3v11.9h3.3V7.8z M135.6,6.2c1.1,0,1.9-0.8,1.9-1.8s-0.8-1.8-1.9-1.8c-1.1,0-1.9,0.8-1.9,1.8S134.5,6.2,135.6,6.2
			 M124.8,16.7c-1.6,0-2.8-1.2-2.8-3.2v-0.2c0-2,1-3.3,2.9-3.3c1.8,0,2.9,1.2,2.9,3.3v0.2C127.7,15.4,126.5,16.7,124.8,16.7
			 M124.6,24.1c3.9,0,6.2-1.8,6.2-5.4V7.8h-3.3v1.8c-0.7-1.2-1.9-2.1-3.8-2.1c-3,0-5.3,2.4-5.3,5.8v0.2c0,3.5,2.3,5.7,5.2,5.7
			c1.8,0,3.2-1.1,3.8-2.2v1.8c0,1.9-1,2.9-3,2.9c-1.7,0-2.4-0.7-2.7-1.7h-3.3C119.1,22.4,120.8,24.1,124.6,24.1 M116.4,7.8h-3.3
			v11.9h3.3V7.8z M114.7,6.2c1.1,0,1.9-0.8,1.9-1.8s-0.8-1.8-1.9-1.8c-1.1,0-1.9,0.8-1.9,1.8S113.6,6.2,114.7,6.2 M102,16.8h-1.5
			V6.3h1.5c3.5,0,4.9,1.8,4.9,5.2v0.2C106.8,15,105.3,16.8,102,16.8 M102.1,3.4h-5.4v16.2h5.3c5.7,0,8.5-3.3,8.5-8.1v-0.1
			C110.7,6.5,107.9,3.4,102.1,3.4 M85.6,7.8h-3.3v11.9h3.3v-5.9c0-2.3,1.4-3.1,3.9-3.1V7.6c-1.9,0-3.1,0.9-3.9,2.5V7.8z M76.8,12.5
			h-5.4c0.3-1.7,1.3-2.7,2.7-2.7C75.9,9.8,76.7,10.7,76.8,12.5 M74.4,19.9c3.3,0,5.3-1.4,5.7-4h-3.1c-0.2,1-1,1.7-2.5,1.7
			c-1.8,0-2.9-1.1-3-3.1H80v-0.9c0-4.3-2.7-6-5.8-6c-3.5,0-6.1,2.4-6.1,6.1V14C68.2,17.7,70.8,19.9,74.4,19.9 M58.3,7.8H55v11.9h3.3
			v-6.8c0-1.8,1.1-2.6,2.5-2.6c1.5,0,2.1,0.8,2.1,2.4v7h3.3v-7.5c0-3.2-1.7-4.6-4-4.6c-2,0-3.3,1-3.9,2.2V7.8z M50.8,19.9
			c0.9,0,1.6-0.2,2-0.3V17c-0.4,0.2-0.8,0.2-1.3,0.2c-0.8,0-1.3-0.5-1.3-1.4v-5.8h2.5V7.7h-2.5V5.1h-3.3v2.6h-1.5v2.4h1.5v6
			C46.9,18.6,48.3,19.9,50.8,19.9 M40.3,7.8H37v11.9h3.3v-5.9c0-2.3,1.4-3.1,3.9-3.1V7.6c-1.9,0-3.1,0.9-3.9,2.5V7.8z M28.4,17.6
			c-1.2,0-1.7-0.6-1.7-1.4c0-1.3,1.1-1.7,3-1.7h1.3v1C30.9,16.8,29.8,17.6,28.4,17.6 M27.4,19.9c1.9,0,2.9-0.7,3.6-1.7v1.4h3.2v-7.7
			c0-3.2-2.1-4.4-5-4.4s-5.2,1.3-5.4,4.1h3.1c0.1-1,0.7-1.7,2-1.7c1.5,0,1.9,0.8,1.9,2.2v0.5h-1.3c-3.7,0-6.1,1.1-6.1,3.8
			C23.4,18.9,25.3,19.9,27.4,19.9 M14.3,19.9c4.9,0,7.6-2.9,7.6-7.2V11h-7.2v2.7h3.7c-0.1,1.9-1.2,3.5-3.9,3.5
			c-3.2,0-4.5-2.3-4.5-5.4v-0.2c0-3.3,1.7-5.5,4.5-5.5c2,0,3.2,0.9,3.5,2.8h3.7c-0.4-4-3.6-5.7-7.2-5.7c-4.8,0-8.2,3.4-8.2,8.2v0.2
			C6,16.5,9,19.9,14.3,19.9"/>
	</g>
</g>
</svg>
